<?xml version="1.0" encoding="UTF-8"?>
<svg version="1.1" xmlns="http://www.w3.org/2000/svg" width="200" height="200">
<path d="M0 0 C66 0 132 0 200 0 C200 66 200 132 200 200 C134 200 68 200 0 200 C0 134 0 68 0 0 Z " fill="#FDFDFE" transform="translate(0,0)"/>
<path d="M0 0 C6.86836079 -0.10158627 13.73652717 -0.17154375 20.60546875 -0.21972656 C22.94115438 -0.23981709 25.27678987 -0.26709461 27.61230469 -0.30175781 C30.97343331 -0.35038691 34.33389575 -0.37299492 37.6953125 -0.390625 C38.73615997 -0.41127014 39.77700745 -0.43191528 40.84939575 -0.45318604 C46.89552299 -0.45504892 50.40394536 -0.05207032 55 4 C57.07470517 6.93722305 57.2079433 8.98106729 56.75 12.5 C56.66234375 13.2528125 56.5746875 14.005625 56.484375 14.78125 C55.97595134 17.1101584 55.15218067 18.92229716 54 21 C54.9590625 22.175625 54.9590625 22.175625 55.9375 23.375 C59.18976575 27.51424732 59.56797853 30.81844149 59 36 C57.50282018 39.20824247 55.72481464 41.72932114 53 44 C49.82212459 45.0592918 47.57411057 45.11458939 44.23828125 45.09765625 C43.12001953 45.09443359 42.00175781 45.09121094 40.84960938 45.08789062 C39.68236328 45.07951172 38.51511719 45.07113281 37.3125 45.0625 C36.13365234 45.05798828 34.95480469 45.05347656 33.74023438 45.04882812 C30.82677211 45.03703273 27.91341137 45.0205727 25 45 C25 41.7 25 38.4 25 35 C35.395 34.505 35.395 34.505 46 34 C47.06537205 29.52297636 47.06537205 29.52297636 47 27 C39.74 27 32.48 27 25 27 C25 23.37 25 19.74 25 16 C34.9 15.505 34.9 15.505 45 15 C45 13.68 45 12.36 45 11 C43.8855249 11.01683838 42.7710498 11.03367676 41.62280273 11.05102539 C37.46437024 11.101885 33.3077727 11.09323157 29.14916992 11.06713867 C27.35387793 11.06406759 25.55848265 11.07686539 23.76342773 11.10620117 C8.81657131 11.3342392 8.81657131 11.3342392 4.22314453 7.96044922 C0 2.59027778 0 2.59027778 0 0 Z " fill="#598BC3" transform="translate(38,69)"/>
<path d="M0 0 C9 0 9 0 12.36328125 2.88671875 C13.37385533 4.1318198 14.35673159 5.39984969 15.3125 6.6875 C15.81072266 7.31333984 16.30894531 7.93917969 16.82226562 8.58398438 C18.23939166 10.37177218 19.62034116 12.18325207 21 14 C22.32983409 15.66946005 23.66163285 17.33737288 25 19 C25.33 16.69 25.66 14.38 26 12 C29.63 12 33.26 12 37 12 C37 22.89 37 33.78 37 45 C26 45 26 45 22.66015625 42.33203125 C21.75970607 41.18516967 20.89354912 40.01060658 20.0625 38.8125 C19.62099609 38.23435547 19.17949219 37.65621094 18.72460938 37.06054688 C17.89715872 35.97244312 17.08322802 34.87379053 16.28930664 33.76098633 C14.59896438 31.45224958 12.78749284 29.23436605 11 27 C10.67 32.94 10.34 38.88 10 45 C6.7 45 3.4 45 0 45 C0 30.15 0 15.3 0 0 Z " fill="#343434" transform="translate(24,69)"/>
<path d="M0 0 C5.28 0 10.56 0 16 0 C16 3.3 16 6.6 16 10 C14.35 10 12.7 10 11 10 C11.1095693 13.45900478 11.24026848 16.91689109 11.375 20.375 C11.4059375 21.35984375 11.436875 22.3446875 11.46875 23.359375 C11.50742188 24.30039063 11.54609375 25.24140625 11.5859375 26.2109375 C11.6173584 27.08024902 11.6487793 27.94956055 11.68115234 28.84521484 C11.81229433 31.20961794 11.81229433 31.20961794 14 33 C17.58343976 33.16677282 17.58343976 33.16677282 21 33 C22.20270964 30.59458071 22.20316663 28.89633409 22.31640625 26.2109375 C22.35830078 25.26992187 22.40019531 24.32890625 22.44335938 23.359375 C22.48267578 22.37453125 22.52199219 21.3896875 22.5625 20.375 C22.60568359 19.38242188 22.64886719 18.38984375 22.69335938 17.3671875 C22.79961069 14.91160162 22.90164964 12.45591297 23 10 C21.35 10 19.7 10 18 10 C18 6.7 18 3.4 18 0 C23.61 0 29.22 0 35 0 C35.06919165 4.28731985 35.12882248 8.57267233 35.16479492 12.86010742 C35.17980313 14.31590368 35.20021633 15.77165532 35.22631836 17.22729492 C35.26305676 19.33002789 35.2798056 21.43215885 35.29296875 23.53515625 C35.3086792 24.797229 35.32438965 26.05930176 35.34057617 27.35961914 C34.71826631 34.01142009 32.19673379 38.66938851 27 43 C22.4562678 45.72623932 17.14307535 45.67693769 12 45 C8.625 43.25 8.625 43.25 6 41 C5.2575 40.38125 4.515 39.7625 3.75 39.125 C-0.06099155 34.4973674 -0.24324931 29.43316595 -0.1953125 23.6328125 C-0.1924826 22.95322479 -0.18965271 22.27363708 -0.18673706 21.57345581 C-0.17562964 19.42378392 -0.15054391 17.27454386 -0.125 15.125 C-0.11495795 13.65886023 -0.10583425 12.19271386 -0.09765625 10.7265625 C-0.07743104 7.15074542 -0.03826713 3.57585046 0 0 Z " fill="#5C8CC2" transform="translate(127,69)"/>
<path d="M0 0 C7.92 0 15.84 0 24 0 C24 3.3 24 6.6 24 10 C19.38 10 14.76 10 10 10 C10 12.31 10 14.62 10 17 C12.64 17 15.28 17 18 17 C18 20.3 18 23.6 18 27 C15.36 27 12.72 27 10 27 C10 29.64 10 32.28 10 35 C14.62 35 19.24 35 24 35 C24 38.3 24 41.6 24 45 C16.08 45 8.16 45 0 45 C0 30.15 0 15.3 0 0 Z " fill="#588AC2" transform="translate(165,69)"/>
<path d="M0 0 C3.63 0 7.26 0 11 0 C11 11.55 11 23.1 11 35 C15.95 35 20.9 35 26 35 C29.0334618 38.0334618 30.35732336 39.38029661 32 43 C32.33 43.66 32.66 44.32 33 45 C22.11 45 11.22 45 0 45 C0 30.15 0 15.3 0 0 Z " fill="#578BC5" transform="translate(100,69)"/>
<path d="M0 0 C0 14.85 0 29.7 0 45 C10.56 44.67 21.12 44.34 32 44 C30.35 42.02 28.7 40.04 27 38 C26.67 37.34 26.34 36.68 26 36 C21.05 35.67 16.1 35.34 11 35 C11 23.45 11 11.9 11 0 C11.33 0 11.66 0 12 0 C12 11.22 12 22.44 12 34 C16.95 34 21.9 34 27 34 C27.33 33.01 27.66 32.02 28 31 C28.37125 32.051875 28.7425 33.10375 29.125 34.1875 C30.90715705 38.39987121 33.3660068 40.29383485 37 43 C37.66 43.66 38.32 44.32 39 45 C34.90319435 46.14404987 30.95946469 46.12609467 26.734375 46.09765625 C25.94097717 46.0962413 25.14757935 46.09482635 24.33013916 46.09336853 C21.80338728 46.08778415 19.27672496 46.07523454 16.75 46.0625 C15.03385545 46.05748298 13.31770951 46.05292043 11.6015625 46.04882812 C7.40100731 46.03781984 3.20051883 46.02056596 -1 46 C-1.495 44.515 -1.495 44.515 -2 43 C-4.31 43.66 -6.62 44.32 -9 45 C-7.91955228 42.75599319 -6.83844327 40.77630606 -5.375 38.75 C-3.57168189 35.14336379 -3.26872696 31.91808395 -4 28 C-5.92293518 24.78170896 -5.92293518 24.78170896 -8 22 C-8 18 -8 18 -7 16.125 C-5.20908935 12.31931486 -5.64562721 9.01882176 -7 5.125 C-7.495 4.073125 -7.495 4.073125 -8 3 C-7.34 3 -6.68 3 -6 3 C-6 2.34 -6 1.68 -6 1 C-3.92446352 0.4465236 -2.15634036 0 0 0 Z " fill="#F5FCFD" transform="translate(100,69)"/>
<path d="M0 0 C3.63 0 7.26 0 11 0 C11 10.23 11 20.46 11 31 C7.37 31 3.74 31 0 31 C0 20.77 0 10.54 0 0 Z " fill="#313031" transform="translate(10,83)"/>
<path d="M0 0 C6.86836079 -0.10158627 13.73652717 -0.17154375 20.60546875 -0.21972656 C22.94115438 -0.23981709 25.27678987 -0.26709461 27.61230469 -0.30175781 C30.97343331 -0.35038691 34.33389575 -0.37299492 37.6953125 -0.390625 C38.73615997 -0.41127014 39.77700745 -0.43191528 40.84939575 -0.45318604 C46.89627849 -0.45504916 50.40240662 -0.05070983 55 4 C57.1697858 7.03042709 57.15841571 9.1227732 56.625 12.75 C56.51414063 13.54921875 56.40328125 14.3484375 56.2890625 15.171875 C56.14597656 16.07679687 56.14597656 16.07679687 56 17 C55.67 17 55.34 17 55 17 C55 14.36 55 11.72 55 9 C54.01 9 53.02 9 52 9 C52.2475 10.0828125 52.2475 10.0828125 52.5 11.1875 C51.93135312 14.38613869 51.54692752 14.87586385 49.0625 16.8125 C42.51045006 20.61768327 34.29671653 19.37312755 27 19 C26.67 21.31 26.34 23.62 26 26 C32.27 26 38.54 26 45 26 C45 26.33 45 26.66 45 27 C38.4 27 31.8 27 25 27 C25 23.37 25 19.74 25 16 C34.9 15.505 34.9 15.505 45 15 C45 13.68 45 12.36 45 11 C32.46 10.67 19.92 10.34 7 10 C7 9.67 7 9.34 7 9 C8.70313354 8.98598145 8.70313354 8.98598145 10.44067383 8.97167969 C14.65103473 8.9318243 18.86066145 8.86607871 23.07055664 8.79248047 C24.89305189 8.76424486 26.71567019 8.7430432 28.53833008 8.72900391 C31.15770583 8.7076096 33.77559815 8.66098021 36.39453125 8.609375 C37.21025101 8.60814636 38.02597076 8.60691772 38.8664093 8.60565186 C43.3928874 8.5260086 43.3928874 8.5260086 47.0378418 6.08691406 C48.13956253 4.0802955 48.13956253 4.0802955 48 2 C33.15 1.67 18.3 1.34 3 1 C3 1.66 3 2.32 3 3 C3.66 3 4.32 3 5 3 C4.67 3.99 4.34 4.98 4 6 C0 1.125 0 1.125 0 0 Z " fill="#628BBA" transform="translate(38,69)"/>
<path d="M0 0 C3.63 0 7.26 0 11 0 C11 11.55 11 23.1 11 35 C10.67 35 10.34 35 10 35 C9.67 24.11 9.34 13.22 9 2 C6.69 2 4.38 2 2 2 C1.67 15.53 1.34 29.06 1 43 C7.93 43 14.86 43 22 43 C22.33 40.69 22.66 38.38 23 36 C19.37 36 15.74 36 12 36 C12 35.67 12 35.34 12 35 C24.40497489 33.77649563 24.40497489 33.77649563 28.23046875 36.7109375 C29.72270457 38.75216872 30.92210935 40.71578918 32 43 C32.33 43.66 32.66 44.32 33 45 C22.11 45 11.22 45 0 45 C0 30.15 0 15.3 0 0 Z " fill="#6089B8" transform="translate(100,69)"/>
<path d="M0 0 C0.98086578 0.00007553 1.96173157 0.00015106 2.97232056 0.00022888 C4.03381317 0.00539017 5.09530579 0.01055145 6.18896484 0.01586914 C7.8161293 0.01799156 7.8161293 0.01799156 9.47616577 0.02015686 C12.95077234 0.02576737 16.42531515 0.03832167 19.89990234 0.05102539 C22.25146392 0.05603904 24.60302649 0.06060218 26.95458984 0.06469727 C32.7280492 0.07574021 38.50147122 0.0924886 44.27490234 0.11352539 C44.27490234 0.44352539 44.27490234 0.77352539 44.27490234 1.11352539 C29.42490234 1.44352539 14.57490234 1.77352539 -0.72509766 2.11352539 C4.08296601 10.29650485 4.08296601 10.29650485 9.44433594 11.11352539 C11.02015684 11.15376675 12.59746901 11.15176149 14.17333984 11.11352539 C15.42577988 11.12984009 15.42577988 11.12984009 16.70352173 11.14648438 C19.35364568 11.17254781 21.99988412 11.1438636 24.64990234 11.11352539 C26.45330766 11.12162112 28.25670068 11.13330189 30.06005859 11.14868164 C34.46594618 11.17846338 38.86917672 11.15917401 43.27490234 11.11352539 C43.27490234 11.44352539 43.27490234 11.77352539 43.27490234 12.11352539 C32.38490234 12.11352539 21.49490234 12.11352539 10.27490234 12.11352539 C10.27490234 15.08352539 10.27490234 18.05352539 10.27490234 21.11352539 C3.18036158 15.75868941 -2.00494518 8.58710014 -6.72509766 1.11352539 C-4.28542269 -0.10631209 -2.72605241 -0.00698988 0 0 Z " fill="#DDECF9" transform="translate(39.72509765625,67.886474609375)"/>
<path d="M0 0 C0.33 0 0.66 0 1 0 C1 14.85 1 29.7 1 45 C11.56 44.67 22.12 44.34 33 44 C31.35 42.02 29.7 40.04 28 38 C27.67 37.34 27.34 36.68 27 36 C22.05 35.67 17.1 35.34 12 35 C12 23.45 12 11.9 12 0 C12.33 0 12.66 0 13 0 C13 11.22 13 22.44 13 34 C17.95 34 22.9 34 28 34 C28.33 33.01 28.66 32.02 29 31 C29.37125 32.051875 29.7425 33.10375 30.125 34.1875 C31.90715705 38.39987121 34.3660068 40.29383485 38 43 C38.66 43.66 39.32 44.32 40 45 C35.90327355 46.14402776 31.95962841 46.12621742 27.734375 46.09765625 C27.03070801 46.09664917 26.32704102 46.09564209 25.60205078 46.09460449 C22.98468384 46.08939005 20.36734021 46.07542881 17.75 46.0625 C11.8925 46.041875 6.035 46.02125 0 46 C0 30.82 0 15.64 0 0 Z " fill="#C2D7EC" transform="translate(99,69)"/>
<path d="M0 0 C3.63 0 7.26 0 11 0 C11 3.96 11 7.92 11 12 C7.37 12 3.74 12 0 12 C0 8.04 0 4.08 0 0 Z " fill="#5F8BBD" transform="translate(10,69)"/>
<path d="M0 0 C7.92 0 15.84 0 24 0 C24 3.3 24 6.6 24 10 C19.71 10 15.42 10 11 10 C11 9.67 11 9.34 11 9 C14.96 9 18.92 9 23 9 C22.67 6.69 22.34 4.38 22 2 C15.4 2 8.8 2 2 2 C2 7.94 2 13.88 2 20 C1.34 20.33 0.68 20.66 0 21 C0 14.07 0 7.14 0 0 Z " fill="#6189B5" transform="translate(165,69)"/>
<path d="M0 0 C2.5625 0.375 2.5625 0.375 4.4375 2.0625 C5.5625 4.375 5.5625 4.375 5.375 7.0625 C4.5625 9.375 4.5625 9.375 2.5625 10.375 C-0.4375 10.625 -0.4375 10.625 -3.4375 10.375 C-5.4375 7.375 -5.4375 7.375 -5.1875 4.8125 C-4.1927353 1.57951474 -3.3898104 0.52150929 0 0 Z " fill="#D7D8D7" transform="translate(149.4375,118.625)"/>
<path d="M0 0 C0.625 3.375 0.625 3.375 1 7 C-1 9 -1 9 -4 9.25 C-7 9 -7 9 -9 7 C-8.75 3.4375 -8.75 3.4375 -8 0 C-5.13822943 -1.43088528 -3.06624227 -0.59991697 0 0 Z " fill="#F6F6F5" transform="translate(74,120)"/>
<path d="M0 0 C2.05078125 0.03255208 4.1015625 0.06510417 6.15234375 0.09765625 C6.15234375 3.39765625 6.15234375 6.69765625 6.15234375 10.09765625 C3.51234375 10.09765625 0.87234375 10.09765625 -1.84765625 10.09765625 C-2.04177806 8.61934404 -2.22777756 7.13996309 -2.41015625 5.66015625 C-2.51457031 4.83644531 -2.61898437 4.01273437 -2.7265625 3.1640625 C-2.76652344 2.48214844 -2.80648437 1.80023438 -2.84765625 1.09765625 C-1.84765625 0.09765625 -1.84765625 0.09765625 0 0 Z " fill="#6D94C1" transform="translate(176.84765625,85.90234375)"/>
<path d="M0 0 C0.33 0.99 0.66 1.98 1 3 C-2.86723631 4.26582219 -6.73151262 4.1118765 -10.75 4.0625 C-11.44738281 4.05798828 -12.14476563 4.05347656 -12.86328125 4.04882812 C-14.57555803 4.0371002 -16.28779033 4.01916653 -18 4 C-18.33 6.31 -18.66 8.62 -19 11 C-12.73 11 -6.46 11 0 11 C0 11.33 0 11.66 0 12 C-6.6 12 -13.2 12 -20 12 C-20 8.37 -20 4.74 -20 1 C-10.1 0.505 -10.1 0.505 0 0 Z " fill="#7A9BC1" transform="translate(83,84)"/>
<path d="M0 0 C0.33 0 0.66 0 1 0 C2.04092806 10.01526929 1.96054878 19.77962957 1.5625 29.8125 C1.50909926 31.29489802 1.45636119 32.77732007 1.40429688 34.25976562 C1.27714038 37.84015213 1.14112105 41.42013342 1 45 C0.67 45 0.34 45 0 45 C0 34.77 0 24.54 0 14 C-3.63 14 -7.26 14 -11 14 C-11 13.34 -11 12.68 -11 12 C-7.37 12 -3.74 12 0 12 C0 8.04 0 4.08 0 0 Z " fill="#C7CED3" transform="translate(21,69)"/>
<path d="M0 0 C2 2 2 2 2.1953125 4.8203125 C2.16050781 6.45613281 2.16050781 6.45613281 2.125 8.125 C2.10695313 9.22070312 2.08890625 10.31640625 2.0703125 11.4453125 C2.04710938 12.28835937 2.02390625 13.13140625 2 14 C-0.64 14.99 -3.28 15.98 -6 17 C-4.93191573 14.78167112 -3.84556315 12.77761093 -2.4375 10.75 C-0.53366744 7.10788555 -0.34607051 4.08363201 0 0 Z " fill="#E9F7FC" transform="translate(97,97)"/>
<path d="M0 0 C4.62 0 9.24 0 14 0 C14 2.97 14 5.94 14 9 C12.35 9 10.7 9 9 9 C9.33 6.69 9.66 4.38 10 2 C6.7 1.67 3.4 1.34 0 1 C0 0.67 0 0.34 0 0 Z " fill="#608BBA" transform="translate(129,70)"/>
<path d="M0 0 C1.65 0 3.3 0 5 0 C4.34 1.65 3.68 3.3 3 5 C3.99 5.33 4.98 5.66 6 6 C5.67 7.32 5.34 8.64 5 10 C3.02 10 1.04 10 -1 10 C-0.67 9.34 -0.34 8.68 0 8 C2.0625 7.375 2.0625 7.375 4 7 C2.35 6.01 0.7 5.02 -1 4 C-0.67 2.68 -0.34 1.36 0 0 Z " fill="#B8B9B9" transform="translate(50,119)"/>
<path d="M0 0 C-0.99 0 -1.98 0 -3 0 C-3.33 0.99 -3.66 1.98 -4 3 C-4.66 3 -5.32 3 -6 3 C-5.34 4.32 -4.68 5.64 -4 7 C-1.55519921 6.81171228 -1.55519921 6.81171228 1 6 C2.36020151 4.03241727 2.36020151 4.03241727 3 2 C3.125 4.375 3.125 4.375 3 7 C1 9 1 9 -2 9.25 C-5 9 -5 9 -7 7 C-6.75 3.4375 -6.75 3.4375 -6 0 C-3.50907189 -1.24546405 -2.58919267 -0.7767578 0 0 Z " fill="#A8A8A9" transform="translate(72,120)"/>
<path d="M0 0 C1.98 0.99 1.98 0.99 4 2 C3.34 4.31 2.68 6.62 2 9 C1.34 9 0.68 9 0 9 C0 6.03 0 3.06 0 0 Z " fill="#B9B9B7" transform="translate(164,120)"/>
<path d="M0 0 C2.97 0 5.94 0 9 0 C8.67 1.32 8.34 2.64 8 4 C8 3.34 8 2.68 8 2 C5.36 2.33 2.72 2.66 0 3 C0 2.01 0 1.02 0 0 Z " fill="#5D89BB" transform="translate(11,70)"/>
<path d="M0 0 C1.65 0 3.3 0 5 0 C5.33 1.98 5.66 3.96 6 6 C4.68 6.33 3.36 6.66 2 7 C2.33 5.02 2.66 3.04 3 1 C2.01 0.67 1.02 0.34 0 0 Z " fill="#EBF9FD" transform="translate(80,96)"/>
<path d="M0 0 C1.65 0 3.3 0 5 0 C5 1.65 5 3.3 5 5 C2.525 4.01 2.525 4.01 0 3 C0 2.01 0 1.02 0 0 Z " fill="#548BCA" transform="translate(176,88)"/>
<path d="M0 0 C2.0625 0.75 2.0625 0.75 4 2 C4.33 2.99 4.66 3.98 5 5 C4.34 5 3.68 5 3 5 C2.67 5.66 2.34 6.32 2 7 C0.68 5.02 -0.64 3.04 -2 1 C-1.34 0.67 -0.68 0.34 0 0 Z " fill="#ECEFEF" transform="translate(35,68)"/>
<path d="M0 0 C3.36720387 1.39332574 4.9859524 2.9789286 7 6 C6.67 6.66 6.34 7.32 6 8 C5.67 7.01 5.34 6.02 5 5 C4.01 5 3.02 5 2 5 C2 4.01 2 3.02 2 2 C1.34 2 0.68 2 0 2 C0 1.34 0 0.68 0 0 Z " fill="#6D96BF" transform="translate(89,89)"/>
</svg>
