<?xml version="1.0" encoding="UTF-8"?>
<svg version="1.1" xmlns="http://www.w3.org/2000/svg" width="380" height="182">
<path d="M0 0 C2.97 0 5.94 0 9 0 C8.49889796 12.05457193 6.53137354 23.75333648 4.5 35.625 C-2.60723166 71.09928171 -2.60723166 71.09928171 6 105 C9.26862881 108.82668739 11.3983435 110.75164156 16.49609375 111.23828125 C32.13033174 111.63277065 45.79744997 104.31132737 58 94.96875 C60.66360991 93.67856395 62.22020285 94.18922583 65 95 C64.77183594 96.07378906 64.54367188 97.14757812 64.30859375 98.25390625 C64.01762421 99.68998173 63.7272936 101.12618676 63.4375 102.5625 C63.21030273 103.61920898 63.21030273 103.61920898 62.97851562 104.69726562 C62.03239387 109.47188005 62.05167949 113.22071586 63 118 C70.67294082 114.92773597 75.99869244 111.37707377 80 104 C81.11847355 100.66434035 82.04701225 97.30652366 82.9765625 93.9140625 C84.48642658 89.61498385 85.99888212 88.12304214 90 86 C92.625 85.875 92.625 85.875 95 87 C97.375 89.25 97.375 89.25 99 92 C98.75 94.8125 98.75 94.8125 98 97 C96.68 96.67 95.36 96.34 94 96 C93.67 94.35 93.34 92.7 93 91 C92.01 91 91.02 91 90 91 C88.02297893 95.81898887 87.03753285 100.82544544 88 106 C91.5998414 108.39989427 92.75098128 108.64136132 97 108 C101.89270227 105.18127557 105.79742448 101.65431156 109 97 C109.58802969 94.00214259 109.58802969 94.00214259 109.50390625 90.765625 C109.52868042 88.9561438 109.52868042 88.9561438 109.55395508 87.11010742 C109.5567749 85.83627197 109.55959473 84.56243652 109.5625 83.25 C110.12789227 52.70179915 110.12789227 52.70179915 117 43 C119.75 42 119.75 42 122 42 C125.65451656 47.48177483 124.48486962 53.86341137 123.2421875 60.1171875 C121.86555104 66.40684565 120.35381051 72.40742974 117.75 78.3125 C114.55733854 86.31909633 115.70180497 95.54285773 116 104 C116.66 103.67 117.32 103.34 118 103 C122.00905505 102.52273154 124.42786429 103.07964684 127.875 105 C132.04269025 107.21854234 135.33562688 107.88195749 140 107 C148.11110708 104.36894991 153.99197284 98.38320792 158 91 C158.66 90.34 159.32 89.68 160 89 C162.34360915 89.25110098 164.67968195 89.58565749 167 90 C167.66 90 168.32 90 169 90 C169.66 88.68 170.32 87.36 171 86 C172.32 86 173.64 86 175 86 C175.09796875 86.845625 175.1959375 87.69125 175.296875 88.5625 C176.73072815 100.07153884 176.73072815 100.07153884 183.4375 109.0625 C186.57309667 110.20966951 187.88024511 110.16990808 191 109 C197.14897932 105.15688793 200.12922007 99.02618562 202.9375 92.5625 C203.88671875 90.56640625 203.88671875 90.56640625 205 89 C208.25 88 208.25 88 211 88 C212.1875 90.125 212.1875 90.125 213 93 C211.52083305 96.97039551 210.55415439 98.63056374 207 101 C206.74969023 103.58380177 206.74969023 103.58380177 207 106 C211.22253072 107.24103053 213.26945164 106.80157619 217.125 104.75 C217.97320312 104.31171875 218.82140625 103.8734375 219.6953125 103.421875 C221.94955464 102.03112222 223.3682583 101.07198606 225 99 C225.70329095 96.11088684 225.70329095 96.11088684 225.9921875 92.76953125 C226.2097168 90.86892944 226.2097168 90.86892944 226.43164062 88.92993164 C226.50358643 88.25801788 226.57553223 87.58610413 226.6496582 86.89382935 C227.03031226 83.37798598 227.46146489 79.86860698 227.8984375 76.359375 C227.98643616 75.65265152 228.07443481 74.94592804 228.1651001 74.2177887 C229.01001413 67.61194605 230.15687691 61.08572214 231.5 54.5625 C231.68933105 53.60641846 231.87866211 52.65033691 232.07373047 51.6652832 C233.30440722 45.9106057 234.90243676 41.03354027 238 36 C240.00585938 35.16235352 240.00585938 35.16235352 242 35 C244 37 244 37 244.25390625 40.9375 C244.1235913 46.43043951 243.10047214 51.64384498 241.9375 57 C241.6122937 58.54856689 241.6122937 58.54856689 241.28051758 60.12841797 C239.59378606 67.90602669 237.4471939 75.49773865 235.1875 83.125 C231.69084709 95.11024398 230.36591118 104.9905753 233.953125 117.20703125 C234.84190045 119.15731999 234.84190045 119.15731999 236.82788086 119.70629883 C240.79845713 120.24317679 243.74674729 118.10705651 247 116 C249.57787015 113.87089257 251.88352562 111.54455837 254.1875 109.125 C254.77724609 108.52558594 255.36699219 107.92617187 255.97460938 107.30859375 C259.50951944 103.68324661 262.80882205 99.93037736 266 96 C267.32 96.33 268.64 96.66 270 97 C268.53851802 101.73661027 265.72595361 104.85770891 262.375 108.375 C261.83593018 108.94718262 261.29686035 109.51936523 260.74145508 110.10888672 C247.14467276 124.3975811 247.14467276 124.3975811 237.8125 125.3125 C233.83969026 124.8710767 231.95841662 124.14272751 229.375 121.0625 C227.34814624 116.54814389 226.72523403 111.87186623 226 107 C223.66029525 107.93102438 221.32336833 108.86177589 219.0078125 109.8515625 C214.54202846 111.6860547 210.90311458 112.56574399 206 112 C203.5625 110.625 203.5625 110.625 202 109 C202 108.34 202 107.68 202 107 C201.37351562 107.49371094 200.74703125 107.98742187 200.1015625 108.49609375 C199.28429687 109.13675781 198.46703125 109.77742188 197.625 110.4375 C196.81289063 111.07558594 196.00078125 111.71367188 195.1640625 112.37109375 C191.32684295 115.259398 188.80606403 115.32583485 184 115 C178.17404563 112.50316241 174.68602859 107.57867475 172 102 C171.34 101.67 170.68 101.34 170 101 C169.76216797 101.85271484 169.76216797 101.85271484 169.51953125 102.72265625 C167.81865692 108.3515166 165.63624608 112.38098471 162 117 C159.03 116.505 159.03 116.505 156 116 C155.01 112.7 154.02 109.4 153 106 C151.63875 106.99 150.2775 107.98 148.875 109 C142.42645257 112.87096304 136.3451833 113.09642906 129 112 C126.33389285 110.9202266 124.38572149 109.64349703 122 108 C118.7087885 108.74560182 118.7087885 108.74560182 117.0625 112.0625 C116.381875 113.031875 115.70125 114.00125 115 115 C113.68 115 112.36 115 111 115 C110.01 110.545 110.01 110.545 109 106 C108.18595703 106.63228516 108.18595703 106.63228516 107.35546875 107.27734375 C106.28232422 108.09912109 106.28232422 108.09912109 105.1875 108.9375 C104.47980469 109.48277344 103.77210938 110.02804688 103.04296875 110.58984375 C98.7436015 113.55747583 94.04558646 113.66073156 89 113 C86.64027116 111.90167093 85.03359541 110.66859111 83 109 C82.57589844 109.51949219 82.15179688 110.03898437 81.71484375 110.57421875 C76.92848649 116.26525013 72.40621461 121.62813168 64.8125 123.0625 C61 123 61 123 58.78125 121.47265625 C56.38856807 118.15123595 56.51814107 115.30412722 56.6875 111.375 C56.69716797 110.694375 56.70683594 110.01375 56.71679688 109.3125 C56.82979911 104.34040179 56.82979911 104.34040179 58 102 C56.96101562 102.60328125 55.92203125 103.2065625 54.8515625 103.828125 C39.89735678 112.42876756 39.89735678 112.42876756 32 115 C31.41476563 115.19078125 30.82953125 115.3815625 30.2265625 115.578125 C26.87162438 116.21379749 23.52719777 116.22502974 20.125 116.25 C19.43019531 116.270625 18.73539062 116.29125 18.01953125 116.3125 C12.23147501 116.35610118 8.37100026 115.03491673 3.98828125 111.2734375 C-4.9016951 101.20227548 -5.26524712 89.87433251 -5.3125 76.9375 C-5.31511841 76.25282654 -5.31773682 75.56815308 -5.32043457 74.86273193 C-5.32585635 61.50385378 -3.82518877 48.60544529 -1.58203125 35.43261719 C-0.97581572 31.85736957 -0.40563094 28.27778127 0.15625 24.6953125 C1.0832891 18.79338077 2.03246657 12.89542073 3 7 C2.5035498 8.58022949 2.5035498 8.58022949 1.99707031 10.19238281 C-3.81242991 28.66815911 -9.64491996 47.13682402 -15.74035645 65.52062988 C-16.24019594 67.02866244 -16.73852888 68.53719533 -17.23522949 70.04626465 C-25.4588282 94.99990887 -25.4588282 94.99990887 -31 101 C-34.88207415 102.15024419 -37.22935287 102.2157812 -41.125 101.125 C-50.74663643 94.01335568 -52.857878 79.1163068 -55.12109375 68.0859375 C-55.30313354 67.2096167 -55.48517334 66.3332959 -55.67272949 65.43041992 C-56.11754252 63.28742908 -56.55990595 61.14396401 -57 59 C-57.14954132 59.6674675 -57.29908264 60.334935 -57.45315552 61.02262878 C-58.8873729 67.41899401 -60.32762102 73.81397063 -61.77409554 80.2075758 C-62.51693484 83.49194108 -63.25703428 86.7768645 -63.99316406 90.06274414 C-66.83558121 102.74448413 -69.68689931 115.41044777 -73.23046875 127.91796875 C-73.46335602 128.74507858 -73.69624329 129.57218842 -73.93618774 130.42436218 C-76.11032428 137.86838806 -78.78681129 146.95075957 -85 152 C-87.5 152.125 -87.5 152.125 -90 151 C-100.60124409 133.20505456 -93.82412736 100.48229161 -92.625 80.6875 C-92.56187622 79.63852539 -92.49875244 78.58955078 -92.43371582 77.50878906 C-91.99649173 70.33618529 -91.51839029 63.16719216 -91 56 C-90.92245483 54.92719788 -90.84490967 53.85439575 -90.76501465 52.74908447 C-90.5290184 49.56741088 -90.27899635 46.38718788 -90.0234375 43.20703125 C-89.95113922 42.23883957 -89.87884094 41.27064789 -89.80435181 40.27311707 C-89.7288913 39.37579361 -89.65343079 38.47847015 -89.57568359 37.55395508 C-89.51271088 36.76845779 -89.44973816 35.98296051 -89.38485718 35.17366028 C-88.9675515 32.81673195 -88.16767323 31.07775898 -87 29 C-86.01 29.33 -85.02 29.66 -84 30 C-83.87935749 37.76354904 -84.23823191 45.40131087 -84.875 53.13671875 C-85.05866949 55.49422794 -85.24132823 57.85181605 -85.4230957 60.20947266 C-85.51789215 61.43112122 -85.6126886 62.65276978 -85.71035767 63.91143799 C-87.17344591 82.98569363 -88.40228917 101.98822602 -88.3125 121.125 C-88.30968018 121.95180267 -88.30686035 122.77860535 -88.30395508 123.63046265 C-88.26550289 130.83090604 -88.13935822 137.87026667 -87 145 C-79.95319375 136.61307414 -77.77835789 123.05450331 -75.25 112.6875 C-74.91450525 111.33470791 -74.57897352 109.98192498 -74.2434082 108.62915039 C-72.23574714 100.4616562 -70.37672799 92.26533666 -68.58984375 84.046875 C-68.28849014 82.66161369 -68.28849014 82.66161369 -67.98104858 81.24836731 C-66.99295191 76.69204409 -66.01704926 72.13348968 -65.05761719 67.57104492 C-64.6985984 65.88980464 -64.3395503 64.20857062 -63.98046875 62.52734375 C-63.82448715 61.76818665 -63.66850555 61.00902954 -63.50779724 60.22686768 C-62.49417244 55.5132529 -61.02998815 51.37652049 -59 47 C-57.35 47.33 -55.7 47.66 -54 48 C-53.41497746 50.31208376 -52.83176833 52.62459659 -52.25 54.9375 C-52.06953125 55.65317139 -51.8890625 56.36884277 -51.703125 57.10620117 C-50.75701397 60.88284314 -49.83962671 64.66261372 -48.984375 68.4609375 C-46.19958546 83.22082346 -46.19958546 83.22082346 -39 96 C-36.37374861 96.33425735 -36.37374861 96.33425735 -34 96 C-31.03909668 91.08228391 -28.76264058 86.26196963 -26.8203125 80.8671875 C-26.52665802 80.06038544 -26.23300354 79.25358337 -25.93045044 78.42233276 C-21.52805339 66.11900264 -17.75027003 53.60147912 -13.875 41.125 C-12.69262468 37.31966112 -11.5081182 33.51500815 -10.31863403 29.71188354 C-9.58551164 27.36786018 -8.85610619 25.02266938 -8.13131714 22.67605591 C-5.7273228 14.98905745 -2.97237845 7.48502856 0 0 Z M118 51 C116.73694665 56.07476794 115.72963916 60.72796354 116 66 C117.91302307 62.73386305 118.35674661 60.00554752 118.625 56.25 C118.69976562 55.26515625 118.77453125 54.2803125 118.8515625 53.265625 C118.90054688 52.51796875 118.94953125 51.7703125 119 51 C118.67 51 118.34 51 118 51 Z M115 66 C116 70 116 70 116 70 Z M162 93 C158.18363227 98.72455159 158.70717211 104.29749495 159 111 C162.12283585 110.32982661 162.12283585 110.32982661 163.203125 107.890625 C163.72132813 106.58351563 163.72132813 106.58351563 164.25 105.25 C164.60578125 104.38890625 164.9615625 103.5278125 165.328125 102.640625 C166.09495674 99.62679794 166.01617918 97.92898705 165 95 C164.01 94.34 163.02 93.68 162 93 Z " fill="#FFFFFF" transform="translate(103,0)"/>
<path d="M0 0 C-0.33 1.32 -0.66 2.64 -1 4 C-2.98 4.33 -4.96 4.66 -7 5 C-7.33 3.68 -7.66 2.36 -8 1 C-3.375 -1.125 -3.375 -1.125 0 0 Z " fill="#FFFFFF" transform="translate(170,88)"/>
</svg>
